0
SECTION
2
HEADER
9
$INSUNITS
70
4
9
$ACADVER
1
AC1014
9
$HANDSEED
5
FFFF
0
ENDSEC
0
SECTION
2
TABLES
0
TABLE
2
VPORT
5
8
100
AcDbSymbolTable
0
ENDTAB
0
TABLE
2
LTYPE
5
5
100
AcDbSymbolTable
0
LTYPE
5
14
100
AcDbSymbolTableRecord
100
AcDbLinetypeTableRecord
2
BYBLOCK
70
0
0
LTYPE
5
15
100
AcDbSymbolTableRecord
100
AcDbLinetypeTableRecord
2
BYLAYER
70
0
0
ENDTAB
0
TABLE
2
LAYER
5
2
100
AcDbSymbolTable
70
2
0
LAYER
5
50
100
AcDbSymbolTableRecord
100
AcDbLayerTableRecord
2
0
70
0
6
CONTINUOUS
0
ENDTAB
0
TABLE
2
STYLE
5
3
100
AcDbSymbolTable
70
1
0
STYLE
5
11
100
AcDbSymbolTableRecord
100
AcDbTextStyleTableRecord
2
STANDARD
70
0
0
ENDTAB
0
TABLE
2
VIEW
5
6
100
AcDbSymbolTable
70
0
0
ENDTAB
0
TABLE
2
UCS
5
7
100
AcDbSymbolTable
70
0
0
ENDTAB
0
TABLE
2
APPID
5
9
100
AcDbSymbolTable
70
2
0
APPID
5
12
100
AcDbSymbolTableRecord
100
AcDbRegAppTableRecord
2
ACAD
70
0
0
ENDTAB
0
TABLE
2
DIMSTYLE
5
A
100
AcDbSymbolTable
70
1
0
ENDTAB
0
TABLE
2
BLOCK_RECORD
5
1
100
AcDbSymbolTable
70
1
0
BLOCK_RECORD
5
1F
100
AcDbSymbolTableRecord
100
AcDbBlockTableRecord
2
*MODEL_SPACE
0
BLOCK_RECORD
5
1B
100
AcDbSymbolTableRecord
100
AcDbBlockTableRecord
2
*PAPER_SPACE
0
ENDTAB
0
ENDSEC
0
SECTION
2
BLOCKS
0
BLOCK
5
20
100
AcDbEntity
100
AcDbBlockBegin
2
*MODEL_SPACE
0
ENDBLK
5
21
100
AcDbEntity
100
AcDbBlockEnd
0
BLOCK
5
1C
100
AcDbEntity
100
AcDbBlockBegin
2
*PAPER_SPACE
0
ENDBLK
5
1D
100
AcDbEntity
100
AcDbBlockEnd
0
ENDSEC
0
SECTION
2
ENTITIES
0
LWPOLYLINE
5
100
100
AcDbEntity
8
0
100
AcDbPolyline
90
16
70
1
43
0.0
10
-44.955088983386524
20
118.10982649359616
10
-44.955088983386524
20
-17.878321735036149
42
0.41421356237309509
10
-29.955088983386521
20
-32.878321735036145
10
33.94246654122729
20
-32.878321735036153
42
0.19544966007963471
10
44.40671781682758
20
-28.625388555387524
10
73.668246151744484
20
-0.13389498573488717
42
-0.19544966007963449
10
84.132497427344788
20
4.1190381939137328
10
155.02956715371295
20
4.1190381939137488
42
0.41421356237309348
10
170.02956715371295
20
19.119038193913738
10
170.02956715371289
20
81.112466564646297
42
0.41421356237309603
10
155.02956715371295
20
96.112466564646297
10
84.132497427344774
20
96.112466564646297
42
-0.19544966007963888
10
73.668246151744469
20
100.3653997442949
10
44.406717816827587
20
128.85689331394755
42
0.19544966007963452
10
33.94246654122729
20
133.10982649359616
10
-29.955088983386524
20
133.10982649359616
42
0.41421356237309481
0
CIRCLE
5
101
100
AcDbEntity
8
0
100
AcDbCircle
10
2.5449110166134403
20
50.115752379278405
30
0
40
3.0000000000000031
210
0
220
0
230
1
0
LWPOLYLINE
5
102
100
AcDbEntity
8
0
100
AcDbPolyline
90
8
70
1
43
0.0
10
-34.547313661968467
20
14.286863638499492
10
-16.54731366196846
20
14.28686363849949
42
-0.41421356237309437
10
-15.547313661968463
20
13.286863638499495
10
-15.54731366196846
20
3.28686363849949
42
-0.41421356237309509
10
-16.54731366196846
20
2.28686363849949
10
-34.547313661968467
20
2.2868636384994891
42
-0.41421356237309509
10
-35.547313661968467
20
3.2868636384994909
10
-35.547313661968467
20
13.28686363849949
42
-0.41421356237309509
0
LWPOLYLINE
5
103
100
AcDbEntity
8
0
100
AcDbPolyline
90
8
70
1
43
0.0
10
-34.547313661968467
20
38.186863638499496
10
-16.547313661968467
20
38.186863638499496
42
-0.41421356237309509
10
-15.547313661968463
20
37.186863638499496
10
-15.547313661968465
20
27.186863638499503
42
-0.41421356237309637
10
-16.547313661968467
20
26.186863638499496
10
-34.547313661968467
20
26.186863638499489
42
-0.41421356237309637
10
-35.547313661968474
20
27.186863638499503
10
-35.547313661968467
20
37.186863638499489
42
-0.41421356237309637
0
LWPOLYLINE
5
104
100
AcDbEntity
8
0
100
AcDbPolyline
90
8
70
1
43
0.0
10
-34.547313661968467
20
62.086863638499501
10
-16.547313661968467
20
62.086863638499501
42
-0.41421356237308982
10
-15.54731366196847
20
61.086863638499523
10
-15.54731366196847
20
51.086863638499494
42
-0.41421356237309509
10
-16.547313661968467
20
50.086863638499501
10
-34.547313661968467
20
50.086863638499494
42
-0.4142135623730977
10
-35.547313661968467
20
51.086863638499509
10
-35.54731366196846
20
61.086863638499516
42
-0.41421356237309243
0
LWPOLYLINE
5
105
100
AcDbEntity
8
0
100
AcDbPolyline
90
8
70
1
43
0.0
10
-34.547313661968467
20
85.9868636384995
10
-16.547313661968452
20
85.9868636384995
42
-0.41421356237309509
10
-15.547313661968454
20
84.9868636384995
10
-15.547313661968456
20
74.9868636384995
42
-0.41421356237309509
10
-16.547313661968452
20
73.9868636384995
10
-34.547313661968467
20
73.9868636384995
42
-0.4142135623730977
10
-35.547313661968467
20
74.986863638499514
10
-35.547313661968467
20
84.9868636384995
42
-0.41421356237309509
0
ENDSEC
0
SECTION
2
OBJECTS
0
DICTIONARY
5
C
100
AcDbDictionary
3
ACAD_GROUP
350
D
3
ACAD_MLINESTYLE
350
17
0
DICTIONARY
5
D
100
AcDbDictionary
0
DICTIONARY
5
1A
330
C
100
AcDbDictionary
0
DICTIONARY
5
17
100
AcDbDictionary
0
ENDSEC
0
EOF
